<mxfile host="app.diagrams.net" modified="2024-05-13T12:24:28.339Z" agent="Mozilla/5.0 (Windows NT 10.0; Win64; x64) AppleWebKit/537.36 (KHTML, like Gecko) Chrome/124.0.0.0 Safari/537.36" etag="SqeCDUEOmomPu0XxVzkh" version="24.3.1" type="device">
  <diagram id="_0lMjJNFGIserrG-lEn7" name="Page-1">
    <mxGraphModel dx="882" dy="1656" grid="1" gridSize="10" guides="1" tooltips="1" connect="1" arrows="1" fold="1" page="1" pageScale="1" pageWidth="850" pageHeight="1100" math="0" shadow="0">
      <root>
        <mxCell id="0" />
        <mxCell id="1" parent="0" />
        <mxCell id="dGZtFye8N5Q8rCxETJtN-3" value="AccommodationRenovation" style="swimlane;fontStyle=1;align=center;verticalAlign=top;childLayout=stackLayout;horizontal=1;startSize=26;horizontalStack=0;resizeParent=1;resizeParentMax=0;resizeLast=0;collapsible=1;marginBottom=0;whiteSpace=wrap;html=1;" parent="1" vertex="1">
          <mxGeometry x="420" y="-500" width="240" height="124" as="geometry" />
        </mxCell>
        <object label="+ Id: int&lt;div&gt;+ BeginDate: DateTime&lt;/div&gt;&lt;div&gt;+ EndDate: DateTime&lt;/div&gt;&lt;div&gt;+ Description: String&lt;/div&gt;" BeginDate="DateTime&#xa;" id="dGZtFye8N5Q8rCxETJtN-4">
          <mxCell style="text;strokeColor=none;fillColor=none;align=left;verticalAlign=top;spacingLeft=4;spacingRight=4;overflow=hidden;rotatable=0;points=[[0,0.5],[1,0.5]];portConstraint=eastwest;whiteSpace=wrap;html=1;" parent="dGZtFye8N5Q8rCxETJtN-3" vertex="1">
            <mxGeometry y="26" width="240" height="64" as="geometry" />
          </mxCell>
        </object>
        <mxCell id="dGZtFye8N5Q8rCxETJtN-5" value="" style="line;strokeWidth=1;fillColor=none;align=left;verticalAlign=middle;spacingTop=-1;spacingLeft=3;spacingRight=3;rotatable=0;labelPosition=right;points=[];portConstraint=eastwest;strokeColor=inherit;" parent="dGZtFye8N5Q8rCxETJtN-3" vertex="1">
          <mxGeometry y="90" width="240" height="8" as="geometry" />
        </mxCell>
        <mxCell id="dGZtFye8N5Q8rCxETJtN-6" value="+ IsCancellable(Datetime): bool&lt;div&gt;&lt;br&gt;&lt;/div&gt;" style="text;strokeColor=none;fillColor=none;align=left;verticalAlign=top;spacingLeft=4;spacingRight=4;overflow=hidden;rotatable=0;points=[[0,0.5],[1,0.5]];portConstraint=eastwest;whiteSpace=wrap;html=1;" parent="dGZtFye8N5Q8rCxETJtN-3" vertex="1">
          <mxGeometry y="98" width="240" height="26" as="geometry" />
        </mxCell>
        <mxCell id="dGZtFye8N5Q8rCxETJtN-12" value="Accommodation" style="swimlane;fontStyle=1;align=center;verticalAlign=top;childLayout=stackLayout;horizontal=1;startSize=26;horizontalStack=0;resizeParent=1;resizeParentMax=0;resizeLast=0;collapsible=1;marginBottom=0;whiteSpace=wrap;html=1;" parent="1" vertex="1">
          <mxGeometry x="445" y="-730" width="190" height="148" as="geometry" />
        </mxCell>
        <mxCell id="dGZtFye8N5Q8rCxETJtN-19" value="+ Id: int&lt;div&gt;+ Name: string&lt;/div&gt;&lt;div&gt;+ Type: AccommodationType&lt;/div&gt;&lt;div&gt;+ Capcaity: int&lt;/div&gt;&lt;div&gt;+ MinDaysReservation: int&lt;/div&gt;&lt;div&gt;+ CancellationPeriod: int&lt;/div&gt;&lt;div&gt;+ Images: List&amp;lt;string&amp;gt;&lt;/div&gt;" style="text;strokeColor=none;fillColor=none;align=left;verticalAlign=top;spacingLeft=4;spacingRight=4;overflow=hidden;rotatable=0;points=[[0,0.5],[1,0.5]];portConstraint=eastwest;whiteSpace=wrap;html=1;" parent="dGZtFye8N5Q8rCxETJtN-12" vertex="1">
          <mxGeometry y="26" width="190" height="114" as="geometry" />
        </mxCell>
        <mxCell id="dGZtFye8N5Q8rCxETJtN-14" value="" style="line;strokeWidth=1;fillColor=none;align=left;verticalAlign=middle;spacingTop=-1;spacingLeft=3;spacingRight=3;rotatable=0;labelPosition=right;points=[];portConstraint=eastwest;strokeColor=inherit;" parent="dGZtFye8N5Q8rCxETJtN-12" vertex="1">
          <mxGeometry y="140" width="190" height="8" as="geometry" />
        </mxCell>
        <mxCell id="dGZtFye8N5Q8rCxETJtN-22" value="&amp;lt;&amp;lt;enum&amp;gt;&amp;gt;&lt;div&gt;AccommodatonType&lt;/div&gt;" style="swimlane;fontStyle=0;childLayout=stackLayout;horizontal=1;startSize=26;fillColor=none;horizontalStack=0;resizeParent=1;resizeParentMax=0;resizeLast=0;collapsible=1;marginBottom=0;whiteSpace=wrap;html=1;" parent="1" vertex="1">
          <mxGeometry x="10" y="-1096" width="180" height="104" as="geometry" />
        </mxCell>
        <mxCell id="dGZtFye8N5Q8rCxETJtN-23" value="+ Apartment" style="text;strokeColor=none;fillColor=none;align=left;verticalAlign=top;spacingLeft=4;spacingRight=4;overflow=hidden;rotatable=0;points=[[0,0.5],[1,0.5]];portConstraint=eastwest;whiteSpace=wrap;html=1;" parent="dGZtFye8N5Q8rCxETJtN-22" vertex="1">
          <mxGeometry y="26" width="180" height="26" as="geometry" />
        </mxCell>
        <mxCell id="dGZtFye8N5Q8rCxETJtN-24" value="+ House" style="text;strokeColor=none;fillColor=none;align=left;verticalAlign=top;spacingLeft=4;spacingRight=4;overflow=hidden;rotatable=0;points=[[0,0.5],[1,0.5]];portConstraint=eastwest;whiteSpace=wrap;html=1;" parent="dGZtFye8N5Q8rCxETJtN-22" vertex="1">
          <mxGeometry y="52" width="180" height="26" as="geometry" />
        </mxCell>
        <mxCell id="dGZtFye8N5Q8rCxETJtN-25" value="+ Cottage" style="text;strokeColor=none;fillColor=none;align=left;verticalAlign=top;spacingLeft=4;spacingRight=4;overflow=hidden;rotatable=0;points=[[0,0.5],[1,0.5]];portConstraint=eastwest;whiteSpace=wrap;html=1;" parent="dGZtFye8N5Q8rCxETJtN-22" vertex="1">
          <mxGeometry y="78" width="180" height="26" as="geometry" />
        </mxCell>
        <mxCell id="dGZtFye8N5Q8rCxETJtN-36" value="&amp;lt;&amp;lt;enum&amp;gt;&amp;gt;&lt;div&gt;UserRole&lt;/div&gt;" style="swimlane;fontStyle=0;childLayout=stackLayout;horizontal=1;startSize=26;fillColor=none;horizontalStack=0;resizeParent=1;resizeParentMax=0;resizeLast=0;collapsible=1;marginBottom=0;whiteSpace=wrap;html=1;" parent="1" vertex="1">
          <mxGeometry x="210" y="-1096" width="180" height="110" as="geometry" />
        </mxCell>
        <mxCell id="dGZtFye8N5Q8rCxETJtN-39" value="&lt;div&gt;+ Default&lt;/div&gt;&lt;div&gt;+ Owner&lt;/div&gt;+ Guest&lt;div&gt;+ Guide&lt;/div&gt;&lt;div&gt;+ Tourist&lt;/div&gt;" style="text;strokeColor=none;fillColor=none;align=left;verticalAlign=top;spacingLeft=4;spacingRight=4;overflow=hidden;rotatable=0;points=[[0,0.5],[1,0.5]];portConstraint=eastwest;whiteSpace=wrap;html=1;" parent="dGZtFye8N5Q8rCxETJtN-36" vertex="1">
          <mxGeometry y="26" width="180" height="84" as="geometry" />
        </mxCell>
        <mxCell id="dGZtFye8N5Q8rCxETJtN-45" value="User" style="swimlane;fontStyle=1;align=center;verticalAlign=top;childLayout=stackLayout;horizontal=1;startSize=26;horizontalStack=0;resizeParent=1;resizeParentMax=0;resizeLast=0;collapsible=1;marginBottom=0;whiteSpace=wrap;html=1;" parent="1" vertex="1">
          <mxGeometry x="620" y="-976" width="160" height="118" as="geometry" />
        </mxCell>
        <mxCell id="dGZtFye8N5Q8rCxETJtN-46" value="+ Id: int&lt;div&gt;+ Username: string&lt;/div&gt;&lt;div&gt;+ Password: string&lt;/div&gt;&lt;div&gt;+ Role: UserRole&lt;/div&gt;&lt;div&gt;+ IsSuper: bool&lt;/div&gt;" style="text;strokeColor=none;fillColor=none;align=left;verticalAlign=top;spacingLeft=4;spacingRight=4;overflow=hidden;rotatable=0;points=[[0,0.5],[1,0.5]];portConstraint=eastwest;whiteSpace=wrap;html=1;" parent="dGZtFye8N5Q8rCxETJtN-45" vertex="1">
          <mxGeometry y="26" width="160" height="84" as="geometry" />
        </mxCell>
        <mxCell id="dGZtFye8N5Q8rCxETJtN-47" value="" style="line;strokeWidth=1;fillColor=none;align=left;verticalAlign=middle;spacingTop=-1;spacingLeft=3;spacingRight=3;rotatable=0;labelPosition=right;points=[];portConstraint=eastwest;strokeColor=inherit;" parent="dGZtFye8N5Q8rCxETJtN-45" vertex="1">
          <mxGeometry y="110" width="160" height="8" as="geometry" />
        </mxCell>
        <mxCell id="dGZtFye8N5Q8rCxETJtN-49" value="Location" style="swimlane;fontStyle=1;align=center;verticalAlign=top;childLayout=stackLayout;horizontal=1;startSize=26;horizontalStack=0;resizeParent=1;resizeParentMax=0;resizeLast=0;collapsible=1;marginBottom=0;whiteSpace=wrap;html=1;" parent="1" vertex="1">
          <mxGeometry x="240" y="-940" width="160" height="68" as="geometry" />
        </mxCell>
        <mxCell id="dGZtFye8N5Q8rCxETJtN-50" value="+ City: string&lt;div&gt;+ Country: string&lt;/div&gt;" style="text;strokeColor=none;fillColor=none;align=left;verticalAlign=top;spacingLeft=4;spacingRight=4;overflow=hidden;rotatable=0;points=[[0,0.5],[1,0.5]];portConstraint=eastwest;whiteSpace=wrap;html=1;" parent="dGZtFye8N5Q8rCxETJtN-49" vertex="1">
          <mxGeometry y="26" width="160" height="34" as="geometry" />
        </mxCell>
        <mxCell id="dGZtFye8N5Q8rCxETJtN-51" value="" style="line;strokeWidth=1;fillColor=none;align=left;verticalAlign=middle;spacingTop=-1;spacingLeft=3;spacingRight=3;rotatable=0;labelPosition=right;points=[];portConstraint=eastwest;strokeColor=inherit;" parent="dGZtFye8N5Q8rCxETJtN-49" vertex="1">
          <mxGeometry y="60" width="160" height="8" as="geometry" />
        </mxCell>
        <mxCell id="dGZtFye8N5Q8rCxETJtN-58" value="" style="endArrow=diamondThin;endFill=0;endSize=24;html=1;rounded=0;exitX=0.5;exitY=1;exitDx=0;exitDy=0;entryX=0.5;entryY=0;entryDx=0;entryDy=0;edgeStyle=orthogonalEdgeStyle;" parent="1" source="dGZtFye8N5Q8rCxETJtN-12" target="dGZtFye8N5Q8rCxETJtN-3" edge="1">
          <mxGeometry width="160" relative="1" as="geometry">
            <mxPoint x="60" y="-540" as="sourcePoint" />
            <mxPoint x="220" y="-540" as="targetPoint" />
          </mxGeometry>
        </mxCell>
        <mxCell id="W29QxoVNz13E3nJzaayq-7" value="1..1" style="edgeLabel;html=1;align=center;verticalAlign=middle;resizable=0;points=[];" vertex="1" connectable="0" parent="dGZtFye8N5Q8rCxETJtN-58">
          <mxGeometry x="-0.7516" y="1" relative="1" as="geometry">
            <mxPoint as="offset" />
          </mxGeometry>
        </mxCell>
        <mxCell id="W29QxoVNz13E3nJzaayq-8" value="0..*" style="edgeLabel;html=1;align=center;verticalAlign=middle;resizable=0;points=[];" vertex="1" connectable="0" parent="dGZtFye8N5Q8rCxETJtN-58">
          <mxGeometry x="0.2397" relative="1" as="geometry">
            <mxPoint as="offset" />
          </mxGeometry>
        </mxCell>
        <mxCell id="dGZtFye8N5Q8rCxETJtN-67" value="" style="endArrow=diamondThin;endFill=0;endSize=24;html=1;rounded=0;exitX=0.5;exitY=1;exitDx=0;exitDy=0;entryX=0.879;entryY=-0.019;entryDx=0;entryDy=0;edgeStyle=orthogonalEdgeStyle;entryPerimeter=0;" parent="1" source="dGZtFye8N5Q8rCxETJtN-45" target="dGZtFye8N5Q8rCxETJtN-12" edge="1">
          <mxGeometry width="160" relative="1" as="geometry">
            <mxPoint x="600" y="-840" as="sourcePoint" />
            <mxPoint x="600" y="-738" as="targetPoint" />
          </mxGeometry>
        </mxCell>
        <mxCell id="W29QxoVNz13E3nJzaayq-13" value="1..1" style="edgeLabel;html=1;align=center;verticalAlign=middle;resizable=0;points=[];" vertex="1" connectable="0" parent="dGZtFye8N5Q8rCxETJtN-67">
          <mxGeometry x="-0.8284" y="1" relative="1" as="geometry">
            <mxPoint y="1" as="offset" />
          </mxGeometry>
        </mxCell>
        <mxCell id="W29QxoVNz13E3nJzaayq-14" value="0..*" style="edgeLabel;html=1;align=center;verticalAlign=middle;resizable=0;points=[];" vertex="1" connectable="0" parent="dGZtFye8N5Q8rCxETJtN-67">
          <mxGeometry x="0.6226" relative="1" as="geometry">
            <mxPoint as="offset" />
          </mxGeometry>
        </mxCell>
        <mxCell id="dGZtFye8N5Q8rCxETJtN-73" value="AccommodationStatistics" style="swimlane;fontStyle=1;align=center;verticalAlign=top;childLayout=stackLayout;horizontal=1;startSize=26;horizontalStack=0;resizeParent=1;resizeParentMax=0;resizeLast=0;collapsible=1;marginBottom=0;whiteSpace=wrap;html=1;" parent="1" vertex="1">
          <mxGeometry x="20" y="-497" width="360" height="118" as="geometry" />
        </mxCell>
        <object label="+ Reservations: int&lt;div&gt;+ AccommodationCancellations: int&lt;/div&gt;&lt;div&gt;+ AccommodationChangeRequests: int&lt;/div&gt;&lt;div&gt;+ AccommodationRenovationRecommendations: int&lt;/div&gt;&lt;div&gt;+ IsMostOccupied: bool&lt;/div&gt;" BeginDate="DateTime&#xa;" id="dGZtFye8N5Q8rCxETJtN-74">
          <mxCell style="text;strokeColor=none;fillColor=none;align=left;verticalAlign=top;spacingLeft=4;spacingRight=4;overflow=hidden;rotatable=0;points=[[0,0.5],[1,0.5]];portConstraint=eastwest;whiteSpace=wrap;html=1;" parent="dGZtFye8N5Q8rCxETJtN-73" vertex="1">
            <mxGeometry y="26" width="360" height="84" as="geometry" />
          </mxCell>
        </object>
        <mxCell id="dGZtFye8N5Q8rCxETJtN-75" value="" style="line;strokeWidth=1;fillColor=none;align=left;verticalAlign=middle;spacingTop=-1;spacingLeft=3;spacingRight=3;rotatable=0;labelPosition=right;points=[];portConstraint=eastwest;strokeColor=inherit;" parent="dGZtFye8N5Q8rCxETJtN-73" vertex="1">
          <mxGeometry y="110" width="360" height="8" as="geometry" />
        </mxCell>
        <mxCell id="dGZtFye8N5Q8rCxETJtN-78" value="" style="endArrow=diamondThin;endFill=1;endSize=24;html=1;rounded=0;edgeStyle=orthogonalEdgeStyle;entryX=0.188;entryY=0.006;entryDx=0;entryDy=0;exitX=0.5;exitY=1;exitDx=0;exitDy=0;entryPerimeter=0;" parent="1" source="dGZtFye8N5Q8rCxETJtN-49" target="dGZtFye8N5Q8rCxETJtN-12" edge="1">
          <mxGeometry width="160" relative="1" as="geometry">
            <mxPoint x="300" y="-840" as="sourcePoint" />
            <mxPoint x="480" y="-830" as="targetPoint" />
          </mxGeometry>
        </mxCell>
        <mxCell id="W29QxoVNz13E3nJzaayq-11" value="1..1" style="edgeLabel;html=1;align=center;verticalAlign=middle;resizable=0;points=[];" vertex="1" connectable="0" parent="dGZtFye8N5Q8rCxETJtN-78">
          <mxGeometry x="-0.9043" y="-1" relative="1" as="geometry">
            <mxPoint as="offset" />
          </mxGeometry>
        </mxCell>
        <mxCell id="W29QxoVNz13E3nJzaayq-12" value="1..1" style="edgeLabel;html=1;align=center;verticalAlign=middle;resizable=0;points=[];" vertex="1" connectable="0" parent="dGZtFye8N5Q8rCxETJtN-78">
          <mxGeometry x="0.7252" relative="1" as="geometry">
            <mxPoint as="offset" />
          </mxGeometry>
        </mxCell>
        <mxCell id="MHMPz5J3MRUcWMm1FLCJ-1" value="AccommdodationReservation" style="swimlane;fontStyle=1;align=center;verticalAlign=top;childLayout=stackLayout;horizontal=1;startSize=26;horizontalStack=0;resizeParent=1;resizeParentMax=0;resizeLast=0;collapsible=1;marginBottom=0;whiteSpace=wrap;html=1;" parent="1" vertex="1">
          <mxGeometry x="750" y="-500" width="240" height="190" as="geometry" />
        </mxCell>
        <object label="+ Id: int&lt;div&gt;+ BeginDate: DateTime&lt;/div&gt;&lt;div&gt;+ EndDate: DateTime&lt;/div&gt;&lt;div&gt;+ Canceled: bool&lt;/div&gt;&lt;div&gt;+ UsedPoint: bool&lt;/div&gt;&lt;div&gt;&lt;br&gt;&lt;/div&gt;&lt;div&gt;&lt;br&gt;&lt;/div&gt;" BeginDate="DateTime&#xa;" id="MHMPz5J3MRUcWMm1FLCJ-2">
          <mxCell style="text;strokeColor=none;fillColor=none;align=left;verticalAlign=top;spacingLeft=4;spacingRight=4;overflow=hidden;rotatable=0;points=[[0,0.5],[1,0.5]];portConstraint=eastwest;whiteSpace=wrap;html=1;" parent="MHMPz5J3MRUcWMm1FLCJ-1" vertex="1">
            <mxGeometry y="26" width="240" height="84" as="geometry" />
          </mxCell>
        </object>
        <mxCell id="MHMPz5J3MRUcWMm1FLCJ-3" value="" style="line;strokeWidth=1;fillColor=none;align=left;verticalAlign=middle;spacingTop=-1;spacingLeft=3;spacingRight=3;rotatable=0;labelPosition=right;points=[];portConstraint=eastwest;strokeColor=inherit;" parent="MHMPz5J3MRUcWMm1FLCJ-1" vertex="1">
          <mxGeometry y="110" width="240" height="8" as="geometry" />
        </mxCell>
        <mxCell id="MHMPz5J3MRUcWMm1FLCJ-4" value="&lt;div&gt;+ IsNotExpiredOrCanceled(): bool&lt;/div&gt;&lt;div&gt;+ IsOwnerReviewed(): bool&lt;/div&gt;&lt;div&gt;+ IsUserReviewed(): bool&lt;/div&gt;&lt;div&gt;+ GetOccupiedDays(): List&amp;lt;DateTime&amp;gt;&lt;/div&gt;&lt;div&gt;&lt;br&gt;&lt;/div&gt;" style="text;strokeColor=none;fillColor=none;align=left;verticalAlign=top;spacingLeft=4;spacingRight=4;overflow=hidden;rotatable=0;points=[[0,0.5],[1,0.5]];portConstraint=eastwest;whiteSpace=wrap;html=1;" parent="MHMPz5J3MRUcWMm1FLCJ-1" vertex="1">
          <mxGeometry y="118" width="240" height="72" as="geometry" />
        </mxCell>
        <mxCell id="MHMPz5J3MRUcWMm1FLCJ-8" value="" style="endArrow=diamondThin;endFill=0;endSize=24;html=1;rounded=0;exitX=0.75;exitY=1;exitDx=0;exitDy=0;edgeStyle=orthogonalEdgeStyle;entryX=0.421;entryY=-0.004;entryDx=0;entryDy=0;entryPerimeter=0;" parent="1" source="dGZtFye8N5Q8rCxETJtN-45" target="MHMPz5J3MRUcWMm1FLCJ-1" edge="1">
          <mxGeometry width="160" relative="1" as="geometry">
            <mxPoint x="610" y="-630" as="sourcePoint" />
            <mxPoint x="770" y="-630" as="targetPoint" />
          </mxGeometry>
        </mxCell>
        <mxCell id="W29QxoVNz13E3nJzaayq-17" value="1..1" style="edgeLabel;html=1;align=center;verticalAlign=middle;resizable=0;points=[];" vertex="1" connectable="0" parent="MHMPz5J3MRUcWMm1FLCJ-8">
          <mxGeometry x="-0.9282" y="-1" relative="1" as="geometry">
            <mxPoint as="offset" />
          </mxGeometry>
        </mxCell>
        <mxCell id="W29QxoVNz13E3nJzaayq-18" value="0..*" style="edgeLabel;html=1;align=center;verticalAlign=middle;resizable=0;points=[];" vertex="1" connectable="0" parent="MHMPz5J3MRUcWMm1FLCJ-8">
          <mxGeometry x="0.7751" y="-2" relative="1" as="geometry">
            <mxPoint as="offset" />
          </mxGeometry>
        </mxCell>
        <mxCell id="MHMPz5J3MRUcWMm1FLCJ-12" value="" style="endArrow=diamondThin;endFill=0;endSize=24;html=1;rounded=0;entryX=0.066;entryY=-0.01;entryDx=0;entryDy=0;entryPerimeter=0;exitX=1;exitY=0.5;exitDx=0;exitDy=0;edgeStyle=orthogonalEdgeStyle;" parent="1" source="dGZtFye8N5Q8rCxETJtN-19" target="MHMPz5J3MRUcWMm1FLCJ-1" edge="1">
          <mxGeometry width="160" relative="1" as="geometry">
            <mxPoint x="720" y="-660" as="sourcePoint" />
            <mxPoint x="730" y="-510" as="targetPoint" />
          </mxGeometry>
        </mxCell>
        <mxCell id="W29QxoVNz13E3nJzaayq-9" value="1..1" style="edgeLabel;html=1;align=center;verticalAlign=middle;resizable=0;points=[];" vertex="1" connectable="0" parent="MHMPz5J3MRUcWMm1FLCJ-12">
          <mxGeometry x="-0.8171" relative="1" as="geometry">
            <mxPoint as="offset" />
          </mxGeometry>
        </mxCell>
        <mxCell id="W29QxoVNz13E3nJzaayq-10" value="0..*" style="edgeLabel;html=1;align=center;verticalAlign=middle;resizable=0;points=[];" vertex="1" connectable="0" parent="MHMPz5J3MRUcWMm1FLCJ-12">
          <mxGeometry x="0.6669" y="-3" relative="1" as="geometry">
            <mxPoint y="-2" as="offset" />
          </mxGeometry>
        </mxCell>
        <mxCell id="MHMPz5J3MRUcWMm1FLCJ-15" value="Review" style="swimlane;fontStyle=1;align=center;verticalAlign=top;childLayout=stackLayout;horizontal=1;startSize=26;horizontalStack=0;resizeParent=1;resizeParentMax=0;resizeLast=0;collapsible=1;marginBottom=0;whiteSpace=wrap;html=1;" parent="1" vertex="1">
          <mxGeometry x="850" y="-976" width="320" height="178" as="geometry" />
        </mxCell>
        <mxCell id="MHMPz5J3MRUcWMm1FLCJ-16" value="+ OwnerCleannessRating: int&lt;div&gt;+ OwnerRulesRespectRating: int&lt;/div&gt;&lt;div&gt;+ OwnerComment: string&lt;/div&gt;&lt;div&gt;+ GuestCleannesRating: int&lt;/div&gt;&lt;div&gt;+ GuestHospitalityRating: int&lt;/div&gt;&lt;div&gt;+ GuestComment: string&lt;/div&gt;&lt;div&gt;+ GuestRenovationRating: int&lt;/div&gt;&lt;div&gt;+ GuestRenovationComment: int&lt;/div&gt;&lt;div&gt;+ GuestImages: List&amp;lt;string&amp;gt;&lt;/div&gt;" style="text;strokeColor=none;fillColor=none;align=left;verticalAlign=top;spacingLeft=4;spacingRight=4;overflow=hidden;rotatable=0;points=[[0,0.5],[1,0.5]];portConstraint=eastwest;whiteSpace=wrap;html=1;" parent="MHMPz5J3MRUcWMm1FLCJ-15" vertex="1">
          <mxGeometry y="26" width="320" height="144" as="geometry" />
        </mxCell>
        <mxCell id="MHMPz5J3MRUcWMm1FLCJ-17" value="" style="line;strokeWidth=1;fillColor=none;align=left;verticalAlign=middle;spacingTop=-1;spacingLeft=3;spacingRight=3;rotatable=0;labelPosition=right;points=[];portConstraint=eastwest;strokeColor=inherit;" parent="MHMPz5J3MRUcWMm1FLCJ-15" vertex="1">
          <mxGeometry y="170" width="320" height="8" as="geometry" />
        </mxCell>
        <mxCell id="MHMPz5J3MRUcWMm1FLCJ-18" value="" style="endArrow=diamondThin;endFill=1;endSize=24;html=1;rounded=0;entryX=0.75;entryY=0;entryDx=0;entryDy=0;exitX=0.25;exitY=1;exitDx=0;exitDy=0;edgeStyle=orthogonalEdgeStyle;" parent="1" source="MHMPz5J3MRUcWMm1FLCJ-15" target="MHMPz5J3MRUcWMm1FLCJ-1" edge="1">
          <mxGeometry width="160" relative="1" as="geometry">
            <mxPoint x="570" y="-620" as="sourcePoint" />
            <mxPoint x="730" y="-620" as="targetPoint" />
          </mxGeometry>
        </mxCell>
        <mxCell id="W29QxoVNz13E3nJzaayq-19" value="1..1" style="edgeLabel;html=1;align=center;verticalAlign=middle;resizable=0;points=[];" vertex="1" connectable="0" parent="MHMPz5J3MRUcWMm1FLCJ-18">
          <mxGeometry x="-0.8573" y="1" relative="1" as="geometry">
            <mxPoint as="offset" />
          </mxGeometry>
        </mxCell>
        <mxCell id="W29QxoVNz13E3nJzaayq-20" value="1..1" style="edgeLabel;html=1;align=center;verticalAlign=middle;resizable=0;points=[];" vertex="1" connectable="0" parent="MHMPz5J3MRUcWMm1FLCJ-18">
          <mxGeometry x="0.6938" y="3" relative="1" as="geometry">
            <mxPoint as="offset" />
          </mxGeometry>
        </mxCell>
        <mxCell id="MHMPz5J3MRUcWMm1FLCJ-21" value="AccommdodationReservationChangeRequest" style="swimlane;fontStyle=1;align=center;verticalAlign=top;childLayout=stackLayout;horizontal=1;startSize=26;horizontalStack=0;resizeParent=1;resizeParentMax=0;resizeLast=0;collapsible=1;marginBottom=0;whiteSpace=wrap;html=1;" parent="1" vertex="1">
          <mxGeometry x="410" y="-280" width="370" height="120" as="geometry" />
        </mxCell>
        <object label="+ Id: int&lt;div&gt;+ BeginDateNew: DateTime&lt;/div&gt;&lt;div&gt;+ EndDateNew: DateTime&lt;/div&gt;&lt;div&gt;+ Status: AccommodationChangeRequestStatus&lt;/div&gt;&lt;div&gt;+ RejectedMessage: string&lt;/div&gt;&lt;div&gt;&lt;br&gt;&lt;/div&gt;&lt;div&gt;&lt;br&gt;&lt;/div&gt;" BeginDate="DateTime&#xa;" id="MHMPz5J3MRUcWMm1FLCJ-22">
          <mxCell style="text;strokeColor=none;fillColor=none;align=left;verticalAlign=top;spacingLeft=4;spacingRight=4;overflow=hidden;rotatable=0;points=[[0,0.5],[1,0.5]];portConstraint=eastwest;whiteSpace=wrap;html=1;" parent="MHMPz5J3MRUcWMm1FLCJ-21" vertex="1">
            <mxGeometry y="26" width="370" height="84" as="geometry" />
          </mxCell>
        </object>
        <mxCell id="MHMPz5J3MRUcWMm1FLCJ-23" value="" style="line;strokeWidth=1;fillColor=none;align=left;verticalAlign=middle;spacingTop=-1;spacingLeft=3;spacingRight=3;rotatable=0;labelPosition=right;points=[];portConstraint=eastwest;strokeColor=inherit;" parent="MHMPz5J3MRUcWMm1FLCJ-21" vertex="1">
          <mxGeometry y="110" width="370" height="8" as="geometry" />
        </mxCell>
        <mxCell id="MHMPz5J3MRUcWMm1FLCJ-24" value="&lt;div&gt;&lt;br&gt;&lt;/div&gt;" style="text;strokeColor=none;fillColor=none;align=left;verticalAlign=top;spacingLeft=4;spacingRight=4;overflow=hidden;rotatable=0;points=[[0,0.5],[1,0.5]];portConstraint=eastwest;whiteSpace=wrap;html=1;" parent="MHMPz5J3MRUcWMm1FLCJ-21" vertex="1">
          <mxGeometry y="118" width="370" height="2" as="geometry" />
        </mxCell>
        <mxCell id="MHMPz5J3MRUcWMm1FLCJ-25" value="" style="endArrow=diamondThin;endFill=0;endSize=24;html=1;rounded=0;exitX=0.543;exitY=1.013;exitDx=0;exitDy=0;edgeStyle=orthogonalEdgeStyle;exitPerimeter=0;" parent="1" edge="1">
          <mxGeometry width="160" relative="1" as="geometry">
            <mxPoint x="547.3200000000002" y="-375.6619999999998" as="sourcePoint" />
            <mxPoint x="547" y="-280" as="targetPoint" />
          </mxGeometry>
        </mxCell>
        <mxCell id="W29QxoVNz13E3nJzaayq-1" value="0..*" style="edgeLabel;html=1;align=center;verticalAlign=middle;resizable=0;points=[];" vertex="1" connectable="0" parent="MHMPz5J3MRUcWMm1FLCJ-25">
          <mxGeometry x="0.2829" y="5" relative="1" as="geometry">
            <mxPoint x="-5" as="offset" />
          </mxGeometry>
        </mxCell>
        <mxCell id="W29QxoVNz13E3nJzaayq-2" value="1..1" style="edgeLabel;html=1;align=center;verticalAlign=middle;resizable=0;points=[];" vertex="1" connectable="0" parent="MHMPz5J3MRUcWMm1FLCJ-25">
          <mxGeometry x="-0.682" y="-2" relative="1" as="geometry">
            <mxPoint as="offset" />
          </mxGeometry>
        </mxCell>
        <mxCell id="MHMPz5J3MRUcWMm1FLCJ-28" value="&amp;lt;&amp;lt;enum&amp;gt;&amp;gt;&lt;div&gt;AccommodationChangeRequestStatus&lt;/div&gt;" style="swimlane;fontStyle=0;childLayout=stackLayout;horizontal=1;startSize=26;fillColor=none;horizontalStack=0;resizeParent=1;resizeParentMax=0;resizeLast=0;collapsible=1;marginBottom=0;whiteSpace=wrap;html=1;" parent="1" vertex="1">
          <mxGeometry x="400" y="-1096" width="300" height="110" as="geometry" />
        </mxCell>
        <mxCell id="MHMPz5J3MRUcWMm1FLCJ-29" value="&lt;div&gt;+ Accepted&lt;/div&gt;&lt;div&gt;&lt;br&gt;&lt;/div&gt;&lt;div&gt;+ Rejected&lt;/div&gt;&lt;div&gt;&lt;br&gt;&lt;/div&gt;&lt;div&gt;+ WaitingForApproval&lt;/div&gt;&lt;div&gt;&lt;br&gt;&lt;/div&gt;" style="text;strokeColor=none;fillColor=none;align=left;verticalAlign=top;spacingLeft=4;spacingRight=4;overflow=hidden;rotatable=0;points=[[0,0.5],[1,0.5]];portConstraint=eastwest;whiteSpace=wrap;html=1;" parent="MHMPz5J3MRUcWMm1FLCJ-28" vertex="1">
          <mxGeometry y="26" width="300" height="84" as="geometry" />
        </mxCell>
      </root>
    </mxGraphModel>
  </diagram>
</mxfile>
